# xmcd CD database file
#
# Track frame offsets:
#	150
#	15701
#	28482
#	37481
#	54490
#	72485
#	85779
#	100347
#	130133
#	145602
#	163022
#	180961
#	193591
#	206850
#
# Disc length: 2993 seconds
#
# Revision: 0
# Processed by: cddbd v1.5.2PL0 Copyright (c) Steve Scherf et al.
# Submitted via: CDex 1.82
#
DISCID=cc0baf0e
DTITLE=Stephane Belmondo - Sylvain Luc - 2.0
DYEAR=2019
DGENRE=Jazz
TTITLE0=The melancholy Of Rita
TTITLE1=It's Real
TTITLE2=Petite Fourmi
TTITLE3=2.1
TTITLE4=Joey's Smile
TTITLE5=African Waltz
TTITLE6=Les Yeux Dans l'Eau
TTITLE7=2.0
TTITLE8=Evanescence
TTITLE9=Ribbon In The Sky
TTITLE10=2.2
TTITLE11=Mort d'Un Pourri
TTITLE12=Tard Le Soir
TTITLE13=On The Same Road
EXTD=YEAR: 2019
EXTT0=
EXTT1=
EXTT2=
EXTT3=
EXTT4=
EXTT5=
EXTT6=
EXTT7=
EXTT8=
EXTT9=
EXTT10=
EXTT11=
EXTT12=
EXTT13=
PLAYORDER=
